# xmcd CD database file
#
# Track frame offsets:
#	150
#	19421
#	42767
#	62731
#	74914
#	91218
#	109692
#	127764
#	146658
#	165397
#	188555
#	209669
#	234638
#	255535
#	275446
#	290031
#
# Disc length: 4108 seconds
#
# Revision: 1
# Processed by: cddbd v1.5.1PL0 Copyright (c) Steve Scherf et al.
# Submitted via: CDex 1.51
#
DISCID=f0100a10
DTITLE=Various Artist - Mambo con Mambo
DYEAR=2001
DGENRE=Merengue
TTITLE0=Loquera (Tulile)
TTITLE1=La Jacuba (Lo reyes del mambo)
TTITLE2=El Faldon (Cuco Valoy)
TTITLE3=Y que e (Tulile)
TTITLE4=El pollero (Dr)
TTITLE5=Machucao (La banda gorda)
TTITLE6=La chiva blanca (Malafe)
TTITLE7=La vida de gato (Tazo y Memin)
TTITLE8=Yuca batata (Quique Mango)
TTITLE9=Va a seguir (Amarfi)
TTITLE10=Fiesta de palo (Dulce Maria)
TTITLE11=Dile (en vivo) (Sergio Vargas)
TTITLE12=Demasiado Romantica (Eddy Herrera)
TTITLE13=Esta noche (La banda gorda)
TTITLE14=Bomba (azul azul)
TTITLE15=La culebrita (El General)
EXTD=YEAR: 2001
EXTT0=
EXTT1=
EXTT2=
EXTT3=
EXTT4=
EXTT5=
EXTT6=
EXTT7=
EXTT8=
EXTT9=
EXTT10=
EXTT11=
EXTT12=
EXTT13=
EXTT14=
EXTT15=
PLAYORDER=
